<svg xmlns="http://www.w3.org/2000/svg" version="1.1" xmlns:xlink="http://www.w3.org/1999/xlink" xmlns:svgjs="http://svgjs.dev/svgjs" width="1000" height="133" viewBox="0 0 1000 133"><g transform="matrix(1,0,0,1,-0.6060606060606233,0.11987643629224465)"><svg viewBox="0 0 396 53" data-background-color="#ffffff" preserveAspectRatio="xMidYMid meet" height="133" width="1000" xmlns="http://www.w3.org/2000/svg" xmlns:xlink="http://www.w3.org/1999/xlink"><g id="tight-bounds" transform="matrix(1,0,0,1,0.2400000000000091,-0.047770309199165695)"><svg viewBox="0 0 395.52 53.0955406183983" height="53.0955406183983" width="395.52"><g><svg viewBox="0 0 395.52 53.0955406183983" height="53.0955406183983" width="395.52"><g><svg viewBox="0 0 395.52 53.0955406183983" height="53.0955406183983" width="395.52"><g id="textblocktransform"><svg viewBox="0 0 395.52 53.0955406183983" height="53.0955406183983" width="395.52" id="textblock"><g><svg viewBox="0 0 395.52 53.0955406183983" height="53.0955406183983" width="395.52"><g transform="matrix(1,0,0,1,0,0)"><svg width="395.52" viewBox="2.45 -34.6 260.33 34.95" height="53.0955406183983" data-palette-color="#f08804"><path d="M24.6-25.6L24.6-7.5Q24.6-4.65 23.9-2.98 23.2-1.3 21.98-0.65 20.75 0 18.75 0L18.75 0Q15.8 0 14.48-1.58 13.15-3.15 13.1-7.15L13.1-7.15 13-25.6 8.75-25.6Q5.6-25.6 4.03-26.6 2.45-27.6 2.45-30.15L2.45-30.15Q2.45-31.7 3.08-32.6 3.7-33.5 4.95-33.88 6.2-34.25 8.3-34.25L8.3-34.25 29.7-34.25Q32.5-34.25 33.75-33.25 35-32.25 35-29.8L35-29.8Q35-28.15 34.27-27.23 33.55-26.3 32.35-25.95 31.15-25.6 29.25-25.6L29.25-25.6 24.6-25.6ZM59.05-24.3L59.05-24.3Q59.05-26.7 57.3-27.6 55.55-28.5 51.4-28.5L51.4-28.5 51.4-19.85Q55.3-19.85 57.17-20.83 59.05-21.8 59.05-24.3ZM51.4-12.35L51.4-7.5Q51.4 0 45.55 0L45.55 0Q42.6 0 41.22-1.58 39.85-3.15 39.85-7.15L39.85-7.15 39.85-28.25Q39.85-31.15 41.42-32.68 43-34.2 45.55-34.2L45.55-34.2 56.05-34.2Q62.2-34.2 66-31.33 69.8-28.45 69.8-23.95L69.8-23.95Q69.8-20.55 68.37-18.63 66.95-16.7 63.8-15.8L63.8-15.8Q66.2-15.65 68.25-13.48 70.3-11.3 70.3-8.05L70.3-8.05Q70.3-4.75 69.67-2.98 69.05-1.2 67.9-0.6 66.75 0 64.65 0L64.65 0Q61.7 0 60.32-1.23 58.95-2.45 58.95-4.95L58.95-4.95Q58.95-8.05 58.35-9.73 57.75-11.4 56.8-11.9 55.85-12.4 54.15-12.4L54.15-12.4 51.4-12.35ZM106.55-28.25L106.55-28.25 106.55-13.35Q106.55-6.05 103.02-2.88 99.5 0.3 91.14 0.3L91.14 0.3Q83.19 0.3 79.47-3.1 75.75-6.5 75.75-13.35L75.75-13.35 75.75-28.25Q75.75-30.9 77.32-32.58 78.89-34.25 81.3-34.25L81.3-34.25Q84.25-34.25 85.77-33.15 87.3-32.05 87.3-28.7L87.3-28.7 87.3-12.4Q87.34-10.8 87.82-9.85 88.3-8.9 89.09-8.53 89.89-8.15 91.14-8.15 92.39-8.15 93.19-8.45 94-8.75 94.37-9.4 94.75-10.05 94.87-10.7 95-11.35 95-12.4L95-12.4 95-28.75Q95-30.45 95.42-31.6 95.84-32.75 96.72-33.3 97.59-33.85 98.52-34.05 99.44-34.25 100.75-34.25L100.75-34.25Q103.64-34.25 105.09-32.85 106.55-31.45 106.55-28.25ZM126.79-34.6L126.79-34.6Q132.74-34.6 136.94-32.15 141.14-29.7 141.14-26.95L141.14-26.95Q141.14-26.2 140.82-25.68 140.49-25.15 140.02-24.93 139.54-24.7 138.99-24.7L138.99-24.7Q138.09-24.7 136.29-25.63 134.49-26.55 132.29-27.48 130.09-28.4 128.24-28.4L128.24-28.4Q125.29-28.4 125.29-26L125.29-26Q125.29-25.25 125.77-24.58 126.24-23.9 127.29-23.18 128.34-22.45 129.34-21.9 130.34-21.35 132.09-20.43 133.84-19.5 135.04-18.8L135.04-18.8Q138.89-16.6 140.44-14.6 141.99-12.6 141.99-10L141.99-10Q141.99 0.35 128.04 0.35L128.04 0.35Q125.29 0.35 122.72-0.2 120.14-0.75 118.22-1.65 116.29-2.55 114.82-3.65 113.34-4.75 112.59-5.9 111.84-7.05 111.84-8.05L111.84-8.05Q111.84-9.15 112.57-9.93 113.29-10.7 114.69-10.7L114.69-10.7Q115.74-10.7 119.74-9.38 123.74-8.05 126.19-8.05L126.19-8.05Q128.44-8.05 128.44-9.6L128.44-9.6Q128.44-10.05 128.27-10.43 128.09-10.8 127.67-11.18 127.24-11.55 126.72-11.88 126.19-12.2 125.27-12.7 124.34-13.2 123.42-13.7 122.49-14.2 120.99-15 119.49-15.8 118.09-16.6L118.09-16.6Q116.24-17.65 114.92-19.2 113.59-20.75 112.99-22.28 112.39-23.8 112.39-25.1L112.39-25.1Q112.39-29.3 116.14-31.95 119.89-34.6 126.79-34.6ZM166.44-25.6L166.44-7.5Q166.44-4.65 165.74-2.98 165.04-1.3 163.81-0.65 162.59 0 160.59 0L160.59 0Q157.64 0 156.31-1.58 154.99-3.15 154.94-7.15L154.94-7.15 154.84-25.6 150.59-25.6Q147.44-25.6 145.86-26.6 144.29-27.6 144.29-30.15L144.29-30.15Q144.29-31.7 144.91-32.6 145.54-33.5 146.79-33.88 148.04-34.25 150.14-34.25L150.14-34.25 171.54-34.25Q174.34-34.25 175.59-33.25 176.84-32.25 176.84-29.8L176.84-29.8Q176.84-28.15 176.11-27.23 175.39-26.3 174.19-25.95 172.99-25.6 171.09-25.6L171.09-25.6 166.44-25.6ZM193.69-28.7L193.69-7.5Q193.69-3.6 192.24-1.8 190.79 0 187.84 0L187.84 0Q184.94 0 183.56-1.55 182.19-3.1 182.19-7.1L182.19-7.1 182.19-28.25Q182.19-34.25 187.84-34.25L187.84-34.25Q190.74-34.25 192.21-33.15 193.69-32.05 193.69-28.7L193.69-28.7ZM211.48-13.4L211.48-6.95Q211.48-3.55 209.98-1.78 208.48 0 205.63 0L205.63 0Q202.93 0 201.43-1.63 199.93-3.25 199.93-7.15L199.93-7.15 199.93-28.25Q199.93-29.85 200.36-31.03 200.78-32.2 201.58-32.9 202.38-33.6 203.38-33.93 204.38-34.25 205.63-34.25L205.63-34.25 222.03-34.25Q224.93-34.25 226.36-33.35 227.78-32.45 227.78-30.1L227.78-30.1Q227.78-27.9 226.56-27.03 225.33-26.15 222.53-26.15L222.53-26.15 211.48-26.15 211.48-20.3 220.28-20.3Q221.63-20.3 222.56-20.1 223.48-19.9 224.06-19.43 224.63-18.95 224.86-18.28 225.08-17.6 225.08-16.55L225.08-16.55Q225.08-14.85 223.83-14.13 222.58-13.4 219.83-13.4L219.83-13.4 211.48-13.4ZM252.63-15L252.63-7.5Q252.63-3.45 251.18-1.73 249.73 0 246.73 0L246.73 0Q243.83 0 242.48-1.58 241.13-3.15 241.08-7.15L241.08-7.15 241.03-15.25 233.33-24.25Q231.23-26.65 231.23-28.4L231.23-28.4Q231.23-31.15 233.33-32.75L233.33-32.75Q235.33-34.25 236.88-34.25L236.88-34.25Q239.03-34.25 240.73-32.3L240.73-32.3 246.83-25.2 251.93-31.15Q254.48-34.2 257.38-34.2L257.38-34.2Q259.53-34.2 260.73-33L260.73-33Q262.78-30.95 262.78-29.05L262.78-29.05Q262.78-28 262.08-26.83 261.38-25.65 259.83-23.8L259.83-23.8 252.63-15Z" opacity="1" transform="matrix(1,0,0,1,0,0)" fill="#f08804" class="undefined-text-0" data-fill-palette-color="primary" id="text-0"></path></svg></g></svg></g></svg></g></svg></g></svg></g><defs></defs></svg><rect width="395.52" height="53.0955406183983" fill="none" stroke="none" visibility="hidden"></rect></g></svg></g></svg>